<svg xmlns="http://www.w3.org/2000/svg" viewBox="0 0 447.13 85.88"><defs><style>.cls-1,.cls-2{fill:none;stroke:#000;stroke-miterlimit:10;}.cls-1{stroke-width:6px;}.cls-2{stroke-width:2px;}</style></defs><g id="Layer_2" data-name="Layer 2"><g id="Layer_1-2" data-name="Layer 1"><polyline class="cls-1" points="2.72 77.6 33.98 10.21 65.24 77.6"/><path class="cls-1" d="M37.69,77.6,29.15,57.22Z"/><line class="cls-1" x1="77.75" y1="9.82" x2="77.75" y2="61.9"/><polyline class="cls-1" points="77.75 69.45 77.75 77.99 111.96 77.99"/><line class="cls-1" x1="126.26" y1="9.18" x2="158.68" y2="9.18"/><line class="cls-1" x1="162.26" y1="9.18" x2="168.64" y2="9.18"/><line class="cls-1" x1="146.94" y1="9.18" x2="146.94" y2="78.63"/><polyline class="cls-1" points="213.32 10.94 183.45 10.94 183.45 52.55"/><line class="cls-2" x1="191.62" y1="56.64" x2="180.56" y2="56.64"/><polyline class="cls-1" points="183.53 55.63 183.53 76.87 215.94 76.87"/><path class="cls-1" d="M230.68,35.63V10.1c1.3-.25,17.55-3,28.43,8.51a29.66,29.66,0,0,1,7.66,17A20.24,20.24,0,0,1,263.7,48.9c-5.29,8.05-14.52,8.86-15.65,8.94H230.68"/><line class="cls-1" x1="269.15" y1="78.18" x2="251.29" y2="57.31"/><line class="cls-1" x1="286.34" y1="9.86" x2="286.34" y2="77.95"/><path class="cls-1" d="M311.7,29.61c0-3.75,8.86-18.65,29.28-18.56,19.82.1,30.89,13,31.83,30.47,1,18.48-11.18,35.23-32.17,35.24a43.25,43.25,0,0,1-19.06-4.61"/><polyline class="cls-1" points="404.3 76.58 404.3 11.22 414 28.07"/><polyline class="cls-1" points="434.43 59.01 444.13 75.09 444.13 12.71"/></g></g></svg>