<svg xmlns="http://www.w3.org/2000/svg" viewBox="0 0 480.64 121.97"><defs><style>.cls-1,.cls-2{fill:none;stroke:#231f20;stroke-miterlimit:10;}.cls-1{stroke-width:6px;}.cls-2{stroke-width:2px;}</style></defs><g id="Layer_2" data-name="Layer 2"><g id="Layer_1-2" data-name="Layer 1"><g id="Layer_1-2-2" data-name="Layer 1-2"><polyline class="cls-1" points="2.72 83.97 33.98 16.57 65.24 83.97"/><path class="cls-1" d="M37.69,84,29.15,63.59Z"/><line class="cls-1" x1="87.96" y1="13.95" x2="87.96" y2="66.04"/><polyline class="cls-1" points="87.96 73.59 87.96 82.12 122.18 82.12"/><line class="cls-1" x1="126.52" y1="15.55" x2="158.94" y2="15.55"/><line class="cls-1" x1="162.52" y1="15.55" x2="168.9" y2="15.55"/><line class="cls-1" x1="147.2" y1="15.55" x2="147.2" y2="84.99"/><polyline class="cls-1" points="213.41 17.3 183.53 17.3 183.53 58.92"/><line class="cls-2" x1="191.7" y1="63" x2="180.64" y2="63"/><polyline class="cls-1" points="183.61 62 183.61 83.24 216.02 83.24"/><path class="cls-1" d="M224,42V16.44c1.3-.24,17.54-3,28.42,8.51a29.59,29.59,0,0,1,7.66,17A20.3,20.3,0,0,1,257,55.27c-5.29,8-14.53,8.86-15.66,8.94H224"/><line class="cls-1" x1="262.46" y1="84.55" x2="244.61" y2="63.68"/><line class="cls-1" x1="281.5" y1="16.23" x2="281.5" y2="84.31"/><path class="cls-1" d="M300.73,36c0-3.74,8.86-18.65,29.28-18.55,19.81.09,30.88,13,31.83,30.47,1,18.48-11.19,35.23-32.17,35.23a43.29,43.29,0,0,1-19.07-4.61"/><polyline class="cls-1" points="393.32 86.23 393.32 20.87 403.03 37.72"/><polyline class="cls-1" points="423.45 60.61 433.15 76.69 433.15 14.31"/></g><line class="cls-2" x1="178.47" y1="101.19" x2="178.47" y2="116.06"/><polyline class="cls-2" points="178.47 118.22 178.47 120.65 191.24 120.65"/><polyline class="cls-2" points="197 121.19 205.9 102.84 214.81 121.19"/><path class="cls-2" d="M222.23,121.64l.12-19.65,3.23,4.85"/><polyline class="cls-2" points="232.37 113.68 235.59 118.41 235.59 100.08"/><path class="cls-2" d="M256.48,102.78c-3.35-2.26-7.42-2.54-10.21-.68-3.06,2.06-3.26,6.18-3.4,8.09-.22,3.11.52,7.33,2.81,9.1a9.13,9.13,0,0,0,3.51,1.57,6.6,6.6,0,0,0,1,.11"/><path class="cls-2" d="M252.08,121h.23a6.64,6.64,0,0,0,.72-.13,8,8,0,0,0,2.41-1,5.52,5.52,0,0,0,2-2.76v-3.75l-4.37,0"/><line class="cls-2" x1="457.51" y1="1.41" x2="459.95" y2="1.41"/><line class="cls-2" x1="443.74" y1="1.41" x2="456.14" y2="1.41"/><line class="cls-2" x1="451.65" y1="1.41" x2="451.65" y2="18.99"/><path class="cls-2" d="M466.53,19V2.71l8,8.51"/><path class="cls-2" d="M474.87,8.3l4.77-5.59V19"/></g></g></svg>