<svg xmlns="http://www.w3.org/2000/svg" viewBox="0 0 436.15 112.54"><defs><style>.cls-1,.cls-2{fill:none;stroke:#e9fffc;stroke-miterlimit:10;}.cls-1{stroke-width:6px;}.cls-2{stroke-width:2px;}</style></defs><g id="Layer_2" data-name="Layer 2"><g id="Layer_1-2" data-name="Layer 1"><g id="Layer_1-2-2" data-name="Layer 1-2"><polyline class="cls-1" points="2.72 74.53 33.98 7.13 65.24 74.53"/><path class="cls-1" d="M37.69,74.53,29.15,54.15Z"/><line class="cls-1" x1="87.96" y1="4.51" x2="87.96" y2="56.6"/><polyline class="cls-1" points="87.96 64.15 87.96 72.68 122.18 72.68"/><line class="cls-1" x1="126.52" y1="6.11" x2="158.94" y2="6.11"/><line class="cls-1" x1="162.52" y1="6.11" x2="168.9" y2="6.11"/><line class="cls-1" x1="147.2" y1="6.11" x2="147.2" y2="75.55"/><polyline class="cls-1" points="213.41 7.86 183.53 7.86 183.53 49.48"/><line class="cls-2" x1="191.7" y1="53.56" x2="180.64" y2="53.56"/><polyline class="cls-1" points="183.61 52.56 183.61 73.8 216.02 73.8"/><path class="cls-1" d="M224,32.55V7c1.3-.24,17.54-3,28.42,8.51a29.65,29.65,0,0,1,7.66,17A20.3,20.3,0,0,1,257,45.83c-5.29,8.05-14.53,8.86-15.66,8.94H224"/><line class="cls-1" x1="262.46" y1="75.11" x2="244.61" y2="54.24"/><line class="cls-1" x1="281.5" y1="6.79" x2="281.5" y2="74.87"/><path class="cls-1" d="M300.73,26.53c0-3.74,8.86-18.65,29.28-18.55,19.81.09,30.88,13,31.83,30.47,1,18.48-11.19,35.23-32.17,35.23a43.16,43.16,0,0,1-19.07-4.61"/><polyline class="cls-1" points="393.32 76.79 393.32 11.43 403.03 28.28"/><polyline class="cls-1" points="423.45 51.17 433.15 67.25 433.15 4.87"/></g><line class="cls-2" x1="178.47" y1="91.76" x2="178.47" y2="106.63"/><polyline class="cls-2" points="178.47 108.78 178.47 111.22 191.24 111.22"/><polyline class="cls-2" points="197 111.76 205.9 93.4 214.81 111.76"/><path class="cls-2" d="M222.23,112.2l.12-19.65,3.23,4.85"/><polyline class="cls-2" points="232.37 104.25 235.59 108.97 235.59 90.65"/><path class="cls-2" d="M256.48,93.34c-3.35-2.26-7.42-2.54-10.21-.68-3.06,2.06-3.26,6.19-3.4,8.09-.22,3.12.52,7.34,2.81,9.1a9,9,0,0,0,3.51,1.57,6.82,6.82,0,0,0,1,.12"/><path class="cls-2" d="M252.08,111.54l.23,0a6.64,6.64,0,0,0,.72-.13,8.18,8.18,0,0,0,2.41-.94,5.5,5.5,0,0,0,2-2.77v-3.75L253,104"/></g></g></svg> 
