<svg xmlns="http://www.w3.org/2000/svg" viewBox="0 0 436.15 78.04"><defs><style>.cls-1,.cls-2{fill:none;stroke:#e9fffc;stroke-miterlimit:10;}.cls-1{stroke-width:6px;}.cls-2{stroke-width:2px;}</style></defs><g id="Layer_2" data-name="Layer 2"><g id="Layer_1-2" data-name="Layer 1"><polyline class="cls-1" points="2.72 74.53 33.98 7.13 65.24 74.53"/><path class="cls-1" d="M37.69,74.53,29.15,54.15Z"/><line class="cls-1" x1="87.96" y1="4.51" x2="87.96" y2="56.6"/><polyline class="cls-1" points="87.96 64.15 87.96 72.68 122.18 72.68"/><line class="cls-1" x1="126.52" y1="6.11" x2="158.94" y2="6.11"/><line class="cls-1" x1="162.52" y1="6.11" x2="168.9" y2="6.11"/><line class="cls-1" x1="147.2" y1="6.11" x2="147.2" y2="75.55"/><polyline class="cls-1" points="213.41 7.86 183.53 7.86 183.53 49.48"/><line class="cls-2" x1="191.7" y1="53.56" x2="180.64" y2="53.56"/><polyline class="cls-1" points="183.61 52.56 183.61 73.8 216.02 73.8"/><path class="cls-1" d="M224,32.55V7c1.3-.24,17.54-3,28.42,8.51a29.66,29.66,0,0,1,7.66,17A20.31,20.31,0,0,1,257,45.83c-5.29,8.05-14.53,8.86-15.66,8.94H224"/><line class="cls-1" x1="262.46" y1="75.11" x2="244.61" y2="54.24"/><line class="cls-1" x1="281.5" y1="6.79" x2="281.5" y2="74.87"/><path class="cls-1" d="M300.73,26.53c0-3.74,8.86-18.65,29.28-18.55,19.81.09,30.88,13,31.83,30.47,1,18.48-11.19,35.23-32.17,35.23a43.16,43.16,0,0,1-19.07-4.61"/><polyline class="cls-1" points="393.32 76.79 393.32 11.43 403.03 28.28"/><polyline class="cls-1" points="423.45 51.17 433.15 67.25 433.15 4.87"/></g></g></svg>